Frankie And Alice (2010)(Promo)(DivX)(AC3)(DD2.0)(Nl Subs extern)TBS




Canada
Drama / Thriller
101 minuten

geregisseerd door Geoffrey Sax
met Halle Berry, Stellan Skarsgård en Phylicia Rashad

Een jonge vrouw (Berry) worstelt met een meervoudige persoonlijkheidsstoornis. Aan de ene kant is ze gewoon wie ze is, een donkere vrouw. Aan de andere kant is ze echter een blanke racist. Ze wordt verscheurd door de problemen die deze tegenstelling voor haar oplevert.


Storyline

A drama centered on a young woman with multiple personality disorder who struggles to remain her true self and not give in to her racist alter-personality.





 
SOURCE..........: Frankie And Alice 2010 DVDSCR NTSC READ NFO DVDR-KART3LDVD
SIZE............: 1.25GB
FORM............: AVI
VIDEO CODEC.....: XVID 
BITRATE.........: 1508 Kbit/s
WIDTH & HEIGHT..: 720 X 304
FRAMES/S........: 23.976 Fps
AUDIO...........: English
AUDIO CODE......: AC3
BITRATE.........: 256kbps
CHANNELS........: 2(stereo)
SAMPLING........: 48.0 kHz
Subtitles.......: Dutch srt
Cover en label..: meegepost
Vertaling.......: TackleR 


Prima video en audio kwaliteit!
Ik heb geen nags gezien.

SCREENS:
 
http://bayimg.com/KAHMaaaDI


General
Format                           : AVI
Format/Info                      : Audio Video Interleave
File size                        : 1.25 GiB
Duration                         : 1h 41mn
Overall bit rate                 : 1 765 Kbps
Writing application              : Nandub v1.0rc2
Writing library                  : Nandub build 1853/release

Video
ID                               : 0
Format                           : MPEG-4 Visual
Format profile                   : Advanced Simple@L5
Format settings, BVOP            : Yes
Format settings, QPel            : Yes
Format settings, GMC             : No warppoints
Format settings, Matrix          : Default (H.263)
Muxing mode                      : Packed bitstream
Codec ID                         : XVID
Codec ID/Hint                    : XviD
Duration                         : 1h 41mn
Bit rate                         : 1 499 Kbps
Width                            : 720 pixels
Height                           : 304 pixels
Display aspect ratio             : 2.35:1
Frame rate                       : 23.976 fps
Color space                      : YUV
Chroma subsampling               : 4:2:0
Bit depth                        : 8 bits
Scan type                        : Progressive
Bits/(Pixel*Frame)               : 0.286
Stream size                      : 1.06 GiB (85%)
Writing library                  : XviD 1.2.1 (UTC 2008-12-04)

Audio
ID                               : 1
Format                           : AC-3
Format/Info                      : Audio Coding 3
Mode extension                   : CM (complete main)
Codec ID                         : 2000
Duration                         : 1h 41mn
Bit rate mode                    : Constant
Bit rate                         : 256 Kbps
Channel(s)                       : 2 channels
Channel positions                : Front: L R
Sampling rate                    : 48.0 KHz
Bit depth                        : 16 bits
Stream size                      : 186 MiB (15%)
Alignment                        : Split accross interleaves
Interleave, duration             : 42 ms (1.00 video frame)
Interleave, preload duration     : 500 ms


   
http://www.moviemeter.nl/film/55201  
http://www.imdb.com/title/tt1221208